<?xml version="1.0" encoding="utf-8"?>
<!-- Generator: Adobe Illustrator 24.1.0, SVG Export Plug-In . SVG Version: 6.00 Build 0)  -->
<svg version="1.1" id="Layer_1" xmlns="http://www.w3.org/2000/svg" xmlns:xlink="http://www.w3.org/1999/xlink" x="0px" y="0px"
	 viewBox="0 0 103.6 141" style="enable-background:new 0 0 103.6 141;" xml:space="preserve">
<style type="text/css">
	.st0{fill-rule:evenodd;clip-rule:evenodd;fill:#1C0404;}
	.st1{fill-rule:evenodd;clip-rule:evenodd;fill:#FFFFFF;}
</style>
<g>
	<path class="st0" d="M41.5,20c-0.6-1.5-0.4-3.5-1.3-4.7c-0.5-0.8-1.6-1.2-1.8-2c-0.3-1,0-2.1-0.3-3.1c-0.2-0.6-0.7-1.3-1-2.1
		c-0.6-1.3-1-2.5-2-3.4c-1.6-1.6-3.9-1.2-5.7-0.5c-0.9,0.4-2.1,1-2.5,1.8c-1,2,0.2,5.4,0.9,7.2c0.8,2.1,1.8,4,2.5,5.8
		c1.8,4.3,3.4,7.6,5.5,11.1c-3.5,2.4-6.1,6.4-8.4,10.6c-0.6,1.1-1.5,2.5-1.6,3.5c-0.1,0.5,0.2,1,0.1,1.4c-0.1,0.7-0.7,1.5-1,2.3
		c-0.3,0.8-0.7,1.7-0.9,2.5c-0.4,1.6,0.5,1.9,0.5,3.1c0,1.4-0.5,2.4-0.6,3.6c0,1.1,0.2,2.3,0.4,3.3c0.2,0.6,0.6,1,0.7,1.6
		c0.3,1,0.2,2.1,0.5,3.1c0.5,2.1,1,3.7,1.9,5.6c0.4,0.9,1.1,2.1,1,2.8c0,0.7-0.6,1.7-0.9,2.6c-0.7,2-1.1,3.6-1.6,5.7
		c-0.2,1-0.7,2.1-0.7,3.1c0,0.4,0.4,0.9,0.4,1.4c0,2.3-1.2,4.1-0.6,6c0.2,0.6,0.8,1,0.8,1.6c0,0.7-0.2,1.3-0.2,1.9
		c0.1,0.6,0.4,1.2,0.5,1.8c0.2,0.7,0.3,1.4,0.5,1.9c0.3,0.7,1.3,1.1,1,2.2c0.4,0.6,0.9,1.1,1.3,1.8c-1.9,2.2-3.9,4.2-5.5,6.7
		c-2.1,3.2-3.9,7-5.6,10.5c-0.1,1.6-0.8,3.6-0.9,5.2c0.5,1,0.6,2.5,1.7,3.6c0.4,0.4,0.9,0.7,1.6,1.1c0.5,0.4,1.1,1.1,1.6,1.1
		c0.7,0,0.9-1,1.5-1.2c4.1-7.3,9-13.5,14.4-19c1.9,1.3,4,2.8,6.5,3.8c0.8,0.3,1.8,0.8,2.5,1c0.7,0.1,1.5-0.2,2.3,0
		c0.5,0.1,0.8,0.6,1.3,0.7c2.4,0.7,5.4,0.5,7.6,0.3c0.8,1.6,1.2,3.8,2.1,5.6c0.2,0.5,0.9,0.9,1,1.4c0.1,0.5,0,1.1,0.1,1.6
		c0.3,1.7,1.6,3.5,2.1,5.5c0.1,0.4,0,0.8,0.1,1.2c0.2,0.6,0.7,1.3,1.2,1.8c0.5,0.6,1,1.4,1.4,1.7c1.3,1,3.7,1.4,5.3,0.9
		c0.7-0.2,2.2-1.3,2.5-1.9c0.4-0.7,0.3-2.3,0.2-3.3c-0.2-3.3-1-5.9-1.9-8.4c-1.3-3.6-2.8-6.7-4.3-9.9c2.2-1.3,4.3-2.6,5.6-5
		c0.4-0.7,0.6-1.6,1-2.4c0.5-0.7,1.4-0.9,1.9-1.5c0.8-0.9,1.4-2.2,1.9-3.2c0.6-1.3,0.7-2.7,1.3-4c0.3-0.7,1.1-1.2,1.3-1.7
		c0.5-1,0.9-2.6,1.1-3.6c0.1-0.7-0.1-1.4,0-2.1c0.1-0.5,0.5-1,0.6-1.6c0.3-1.7,0.6-4.7,0.2-6c-0.2-0.7-1.2-1.3-1.3-2
		c-0.1-1,0.3-2.3,0.1-3.3c-0.1-0.8-0.4-1.8-0.7-2.6c-0.2-0.6-1-1.9-0.9-2.5c0.1-0.6,0.9-1.3,1.1-1.7c0.4-0.8,0.7-1.8,1.1-2.8
		c0.4-1,1-2.1,1.1-2.8c0.1-0.5-0.2-1-0.1-1.5c0.1-1.1,0.9-2,1.1-3.1c0.2-1,0.2-2.4,0.2-3.6c0-1.1,0.1-2.3-0.2-3.3
		c-0.1-0.5-0.9-1.3-1-2.1c0-0.5,0.2-1.1,0.2-1.6c0.1-1.7-0.4-2.7-0.8-4.1c-0.3-1-0.4-2-0.7-2.7c-0.5-1.1-1.3-1.6-1.7-2.5
		c-0.2-0.5-0.2-1.1-0.5-1.7c-0.3-0.7-0.9-1.4-1.5-2.2c-0.8-1.2-1.2-2.5-2.8-2.8c-0.5-2-1.8-3.3-3.3-4.5c1.8-2,3.6-4.4,5.4-6.7
		c1.2-1.5,2.9-3.4,3.9-5.2c0.4-0.7,1-1.4,1.1-2.1c0.2-1.1-0.6-2.3-1.1-3.1c-0.9-1.2-2.4-2.6-3.6-3.2c-0.9-0.5-2-0.6-2.5,0
		c-0.4,0.5-1,0.9-1.3,1.2c-3.8,4.3-7.5,8.3-11.1,12.5c-1.5-0.5-3.8-0.8-5.3-0.5c-0.4,0.1-0.8,0.4-1.2,0.5c-0.5,0-1.1-0.1-1.6-0.1
		c-1.5-0.1-3,0-4.3,0.3c-0.5,0.1-0.8,0.5-1.3,0.6c-0.8,0.2-1.7,0.2-2.5,0.4c-0.8,0.3-1.4,0.7-2.2,0.9C44.4,22.5,42.2,21.9,41.5,20z
		 M71.4,59.2c-0.2,0.1-0.6-0.8-0.9-1.1c-0.7-0.4-1.7-0.7-2.3-1.3c-0.3-0.3-0.3-0.8-0.4-1.1c-0.5-1.3-1.6-2.9-2.8-3.9
		c-0.7-0.6-1.8-0.7-2.6-1.4c-0.5-0.4-0.7-1.4-1.1-2c-0.4-0.7-1.5-1.6-2.3-2.4c-0.8-0.8-0.8-0.6,0-1.6c1.6-1.9,3.3-4.1,4.9-6
		c1.8,1.5,3,3.2,4.1,5.3c0.8,1.4,1.1,3.1,2.4,4c0.2,1.3,0.4,2.5,0.7,3.7c0.2,1.2,0.7,2.5,0.6,3.8C71.6,56.5,71.3,57.8,71.4,59.2z
		 M62.5,103.2c-1.5-3-3.4-5.9-4.9-8.9c4.9-3.2,9.4-7,13.5-11.3c0.6,2,0.4,4.1,0.2,6.6C70.7,96.3,66.6,100.6,62.5,103.2z M36.9,85.7
		c0.3,0,0.5,0.3,0.6,0.5c1.5,1.7,3.1,3.8,4.7,5.4c-1.7,1.5-3.5,2.7-5.1,4.2C36.4,92.9,36.2,89.6,36.9,85.7z M41.3,40.2
		c0.9,1.7,2.1,3.2,3.2,4.8c-1.8,2-3.3,4.4-5,6.8c-0.5,0.7-1.3,1.6-1.6,2.3c-0.1,0.3,0,0.8-0.2,1.1c-0.3,0.8-1.7,1.2-1.9,2.2
		C34.9,50.9,38,44,41.3,40.2z M66,70.9c-1.7,2.5-4.1,5.3-6.2,7.9c-0.6,0.7-2,1.6-2.2,2.3c-0.2,0.5,0.1,1-0.2,1.4
		c-0.6,0.4-1.3,0.2-1.9,0.4c-1.6,0.5-2.6,2.2-4,3.1c-1.2-0.8-1.7-2.2-2.9-3.1c-0.4-0.4-1.1-0.5-1.5-0.9c-0.5-0.5-0.7-1.2-1.2-1.8
		c-0.4-0.6-0.8-1.3-1.3-1.7c-0.7-0.8-2-1.3-2.5-2.2c-0.6-1-0.6-2.2-1.6-3c3.2-7.1,6.8-13.6,10.9-19.6c0.8,0.7,1.4,1.5,2.3,2.3
		c0.8,0.7,1.9,1.3,2.5,2.2c0.3,0.4,0.5,1,0.7,1.4c0.8,1.4,1.9,3.4,4.1,3.9C63.1,65.5,64.6,68.2,66,70.9z M45.3,103.9
		c1.4-1.2,2.6-2.5,4-3.5c1.1,2,2.5,3.7,3.6,5.7C50,106.1,47.5,104.8,45.3,103.9z M53.9,32.8c-0.6,1.1-1.8,2.4-2.4,3.8
		c-0.6-0.9-1.4-1.7-1.7-2.8C51,33.4,52.4,33.1,53.9,32.8z"/>
	<path class="st1" d="M74.4,92.5c0.5-1.5,0.4-3.2,0.2-4.4c-0.5,0.4-0.3,1.4-0.4,2.2c-0.1,1-0.3,2-0.6,2.7c-0.3,0.2-0.8,0.3-1.3,0.1
		c0.1-1.2,0.1-3.1,0.7-4.1c0.6-1.1,2.4-2.1,3.5-2.9c0.5-0.4,1.1-0.8,1.8-1.3c0.9-0.7,1.5-1.7,2.5-1.3c0.1,1.5,0.4,3.5-0.1,5.1
		c0,0,0,0.1,0,0.2C79.4,90.5,76.5,91.5,74.4,92.5z"/>
	<path class="st1" d="M75,85.6c0.2-1.8-0.1-3.2-0.5-4.6c1.7-1.4,3.3-2.7,4.6-4.6c0.2,0.1,0.4,0,0.5,0.1c0.3,0.1,1.1,3,1,3.8
		c-0.1,1.2-1.6,2.6-2.4,3.2C77,84.3,76,85.3,75,85.6z"/>
	<path class="st1" d="M67.3,104.9c1.4-1,2.6-2.2,3.4-4c-0.4-0.2-0.4,0.2-0.6,0.3c-0.7-0.3-1.5-0.3-2.4-0.3c1.7-1.3,4.2-1.5,6.5-2.1
		c1.2-0.3,2-0.8,3.6-0.5c0.4,0.7-0.4,1.8-0.8,2.6c-0.4,0.7-0.6,1.4-1,1.9C74.4,105.1,70.6,105.4,67.3,104.9z"/>
	<path class="st1" d="M68.4,135.5c0.6-3.1,2.9-4,4-6.4c0.1,0.7,0.5,1.5,0.5,2.3c0,0.4-0.4,1.1-0.5,1.7c-0.1,0.4,0,0.8-0.1,1
		C71.8,135,69.9,135.7,68.4,135.5z"/>
	<path class="st1" d="M82.7,58c-0.1-0.7-0.2-1.5-0.4-2.1c-0.5,1.4,0.2,3.3-0.4,4.8c-0.3,0.7-1.5,1.4-2.2,1.9
		c-2.3,1.6-5.1,3.4-7.7,4.2c0.7-1.5,1.5-3.1,2.2-4.9c0.2-0.6,0.3-1.3,0.6-1.8c0.4-0.8,2.6-1.9,3.3-2.6c1.5-1.3,2.6-2.6,3.6-4.2
		c0.4-0.2,0.6,0.2,1,0.3C83,54.8,83.1,56.4,82.7,58z M79.6,58.9c-0.5-0.2-0.8,0.5-0.3,0.7C79.5,59.4,79.8,59.2,79.6,58.9z M77,61.1
		c0.1,0.6,1.1,0.4,0.9-0.2C77.7,60.3,76.9,60.6,77,61.1z"/>
	<path class="st1" d="M70.7,70c0.5,0.2,1-0.1,1.4-0.2c3.5-0.8,6.9-2.4,9.3-4.4c-0.5,2.3-1.6,4.1-2.6,5.6c-1.2,1.8-4.2,2.4-6.6,2.8
		c-1.2,0.2-2.4,0.5-3.6,0.7c-1.1,0.2-2.4,0.7-3.5,0.2c0.1-0.7,0.6-0.9,0.8-1.5c0.4,0,0.6,0.7,1,0.8c0.1-0.5-1.2-1.1-0.4-1.7
		c0.2-0.1,1,0.7,0.6,1.3c1.5-1.4,2.8-4,4.8-4.9c1.6-0.8,3.3-1,5-1.8c1-0.5,2.2-1.2,3.3-1.9c0.5-0.3,1.1-0.8,1.3-0.5
		c0,0.1,0.1,0.1,0.1,0.2C78.7,67.5,74.6,68.6,70.7,70z M79.9,67.2c-0.7,2-1.9,3.4-3.2,4.7c1.9-0.6,2.9-2.4,3.5-4.8
		C80,67.1,80,67.1,79.9,67.2z"/>
	<path class="st1" d="M81.7,61.6c-0.1,1.1-1.2,1.7-2,2.2c-2.4,1.8-5.3,3-8.3,4c0.1-0.5,0.8-0.6,1.2-0.8
		C75.9,65.7,79.1,63.9,81.7,61.6z"/>
	<path class="st1" d="M67.2,135.1c-0.8-0.5-2-1.9-2-3c0-0.9,0.5-2.1,0.9-3.1c1-2.7,3.3-4.6,3.7-7.7c0.9,1.7,1.5,3.7,2,5.5
		c0.2,0.5-0.1,1.7-0.4,2.3C70.3,130.7,67.6,132.2,67.2,135.1z"/>
	<path class="st1" d="M78.6,74.1C78.6,74.1,78.6,74.1,78.6,74.1c-0.7,3-2.5,4.5-4.5,5.8C75.5,77.9,77.2,76.1,78.6,74.1z"/>
	<path class="st1" d="M74.6,58.5c0.3-1.6-0.2-2.5-0.3-3.7c-0.4,1.1,0,2.7-0.3,4.2c-0.4-0.1-0.6-0.4-0.9-0.7c-0.3-1.9,1-3.4,1.8-4.8
		c1.8-3,4.2-5.5,5.2-9.5c1.2,0.5,1.1,1.7,1.3,3.1c0.1,1.3,0.6,2.5,0.4,3.5C80.8,54.5,77,56.8,74.6,58.5z M79.3,49.3
		c0,0.1-0.1,0.1-0.2,0.1c-0.1,0.5,0,0.8,0.5,0.8C80,49.9,79.9,49.2,79.3,49.3z M78,51.9c0.5,0.1,0.7-0.1,0.7-0.6
		C78.3,50.6,77.4,51.4,78,51.9z M76.3,53.8C77.3,55.2,77.3,52.3,76.3,53.8L76.3,53.8z"/>
	<path class="st1" d="M60.9,108.7c1.3-0.6,2.6-1.3,3.5-2.3c-0.7-0.1-1.4,0.7-2.2,0.9c-0.9-0.2-1.7-0.4-2.6-0.6
		c0.6-1.3,2.7,0.1,3.9-0.2c-0.2-0.6-1.4-0.5-2.1-0.8c1.8-0.6,4.1,0.2,6.3,0.6c1.9,0.3,3.5-0.3,5,0.5c-0.4,1.9-1.8,2.9-3.2,4
		c-1.1,0.8-2.3,1.5-3.3,1.4c-1.1-0.1-2.3-0.8-3.1-1.5C62.3,110.1,61.5,109.4,60.9,108.7z M65.7,110.7
		C65.8,112.5,67.5,110.2,65.7,110.7L65.7,110.7z M63.6,109.9c0.1,0.5,0.1,1,0.9,1C65.2,110.4,64.2,109.5,63.6,109.9z"/>
	<path class="st1" d="M74.1,81.4c-0.1,1.3,0.8,2.9,0.4,4.4c-0.2,0.6-0.8,1.1-1.4,0.9c-0.6-0.2-0.7-2.6-0.6-3.4
		C72.8,82.4,73.6,81.9,74.1,81.4z"/>
	<path class="st1" d="M59.5,82.7c-0.1-0.4,0.2-0.8,0.2-1.2c0.3,0,0.2,0.3,0.6,0.3c0-0.6-0.6-0.8,0-1.3c0.4,0.1,0.3,0.6,0.9,0.6
		c0.1-0.6-0.4-0.6-0.5-1.1c0.2-0.2,0.4-0.4,0.6-0.7c0.4,0.1,0.6,0.5,0.9,0.7c-0.1,0.4-0.4,0.7-0.7,0.9c1.6-0.8,2.6-2.4,3.9-3.5
		c3.3-0.4,6.2-1.2,9.4-1.7c-0.6-0.5-1.5-0.2-2.1-0.1c-2.1,0.4-4.3,0.9-6.5,1.1c1.5-1.1,4.1-1.4,6.3-1.8c1.2-0.2,2.2-0.8,3.5-0.1
		c0,0.1,0,0.1,0,0.2c-0.7,1.1-1.6,2.1-2.4,3.1c-0.8,1-1.5,2.1-2.5,2.9C68.2,83.1,64.4,83.3,59.5,82.7z M70.2,80.3
		c0.8-0.1,1.2-0.9,1.7-1.4c0.5-0.6,1.1-1.1,1.4-1.9c0-0.1,0-0.1,0-0.2C72.1,77.8,71.1,79.1,70.2,80.3z"/>
	<path class="st1" d="M73,95.5c-0.7,1.4-1,3.3-2.9,3.1c-0.1-0.5,0-1.2,0.3-1.5c0.9,0,1.8,0,2.1-0.6c-0.6-0.3-1.2,0.2-1.8,0.2
		C71,95.6,72.3,96,73,95.5z"/>
	<path class="st1" d="M64.4,129.6c-1.3-1.3-2-3.7-0.9-6.1c0.7,1.3,0.9,2.9,1.8,4.1c0.1-1-0.3-1.8-0.6-2.7c-0.3-0.7-0.9-1.7-0.9-2.3
		c0-0.7,0.8-2.4,1.1-3c0.5-0.9,1.1-1.7,1.5-2.5c0.3-0.7,0.1-1.3,0.8-1.5c0.8,1.2,1.3,2.8,1.9,4.1c-0.2,2.6-1.4,4.2-2.5,5.9
		C65.8,126.8,65.2,128.1,64.4,129.6z"/>
	<path class="st1" d="M74.1,52.6c0.1-2.1-0.3-3.9-0.9-5.6c-0.5,0.3-0.2,1-0.1,1.4c0.2,1.4,0.5,3,0.3,4.8c-0.3,0-0.5-0.2-0.8-0.3
		c0-1.3-1-2.4-0.8-3.7c0.1-0.7,0.6-1.6,0.9-2.5c0.3-0.8,0.5-1.8,0.8-2.5c0.8-1.6,1.6-3.1,1.8-4.8c0.2-1.2-0.1-2.4,0-3.7
		c0.8-0.2,1.4,0.8,1.8,1.4c1,1.5,2,3.5,2,5.7C78.9,46.8,75.6,50,74.1,52.6z"/>
	<path class="st1" d="M70.1,101.3c-0.3,0.3-0.6,0.6-0.8,1c-0.8-0.3-1.8-0.2-2.6-0.3C67.1,100.9,68.9,101.5,70.1,101.3z"/>
	<path class="st1" d="M68.6,18.3c1-1.4,2-2.6,3.7-3.1c-0.7,0.7-1.3,1.5-1.8,2.4c1.3-0.6,1.7-2.3,3.1-3c0.7-0.4,1.9-0.4,3-0.6
		c1.6-0.3,3-0.5,4.5,0.2c0.9,3.3-3.4,3.5-6.3,3.5c-1.2,0-2.3,0.1-3.3,0.3C70.4,18.2,69.4,18.9,68.6,18.3z"/>
	<path class="st1" d="M68.9,102.5c-0.1,1.2-2,0.9-3.5,0.7c-0.2-0.2,0.6-0.6,0.9-0.8C67.2,102.4,68.1,102.5,68.9,102.5z"/>
	<path class="st1" d="M73.7,60.9c-0.4,2.2-1.8,3.9-2.4,6c-0.6,0.2-1,0.5-1.6,0.6C71.1,65.4,71.8,62.4,73.7,60.9z"/>
	<path class="st1" d="M67.7,103.7c-0.6,0.6-2.2,0.3-3.2,0.2C64.8,102.8,66.8,104,67.7,103.7z"/>
	<path class="st1" d="M73.1,13.2c0.7-1.3,2.1-2.5,3.2-3.6c1.9-0.1,2.6,1.6,3.8,2.5c-0.3,0.8-0.9,0.6-2,0.6c-0.7,0-1.5,0.2-2.2,0.3
		C74.7,13.3,74,13.6,73.1,13.2z"/>
	<path class="st1" d="M65.7,114.9c-0.5,3.2-2.6,5-3.4,8c-1.3-0.4-1.2-1.8-1.7-2.8c0.6,0.1,1.3,0.7,2.2,0.8c-0.4-1.1-2.7-0.8-2.7-2.3
		c0.8,0.3,1.4,0.6,2.3,0.8c0.2,0.3,0,0.8,0.5,0.9c0.1-1.4-0.6-2.7-1.1-3.8C63.2,116.2,64.5,115.7,65.7,114.9z"/>
	<path class="st1" d="M66.7,104.5c-0.2,0.4-1,0.1-1.6,0.1C65.5,104.4,66.2,104.6,66.7,104.5z"/>
	<path class="st1" d="M63.7,24.8c0.4-2.1,1.9-3.6,3.7-4.3c-0.8,1.1-2.1,2.2-2.8,3.7c0.5,0,0.9-0.6,1.2-0.9c0.9-1.1,2-2.7,3.4-3.5
		c1.5-0.8,3.9-0.8,6.1-1c1.1-0.1,3.3-0.7,2.4,1.4c-0.3,0.8-1.4,1.5-1.8,2.2c-1.6,1-3.4,1.7-5.7,1.9C68,24.5,65.7,24.5,63.7,24.8z"/>
	<path class="st1" d="M71.2,67.7c-0.3,0.2-0.7,0.3-1,0.1c0.2-0.2,0.6-0.2,0.9-0.3C71,67.7,71.1,67.7,71.2,67.7z"/>
	<path class="st1" d="M53.9,110.1c0.6-0.2,1.2-0.3,1.9-0.2c0.6-0.5,1.7-0.4,2.2-1c0.3,0,0.6,0.4,0.8,0.2c0-0.5-0.6-0.7-1-0.9
		c-0.4-0.3-0.9-0.5-1.2-0.7c1.8-0.3,2.9,1.3,4.2,2.7c1.2,1.4,3,2.1,3.4,3.6c0.2,0.6-2.1,1.3-2.7,1.4c-1.5,0.4-3.6,1.1-4.9-0.1
		C55.3,113.8,54.9,111.6,53.9,110.1z M62.7,113.5c-1.4,0.5-2.8,1.2-4.5,1.3C60.2,115.4,62,114.5,62.7,113.5z M57.6,114.3
		c0.5,0.2,0.9-0.9,0.2-1.1C57.2,113.3,57.2,114.1,57.6,114.3z M56.8,111.6c-0.4-0.1-0.8,0.6-0.3,0.9
		C57.2,112.6,57.3,111.7,56.8,111.6z"/>
	<path class="st1" d="M72.3,44c-0.6-1-1-2.2-2-2.9c1.5-3.1,0.9-6.8,0.1-9.6c0.6-0.9,2.3,0.3,2.7,0.9c0.8,1.2,1.1,4.2,1,6.2
		C74,40.8,73,42.7,72.3,44z"/>
	<path class="st1" d="M70.8,61.9c-0.8-0.6-1.3-1.6-2.4-2c0-0.2,0-0.4,0.1-0.5C69.6,59.9,70.9,60.4,70.8,61.9z"/>
	<path class="st1" d="M70.6,62.2c-0.3,0-0.8-0.5-1.1-0.8c-0.4-0.3-0.9-0.7-1-1.2C69.2,60.9,69.9,61.5,70.6,62.2z"/>
	<path class="st1" d="M70.3,63.3c-0.6-0.7-1.8-1.1-1.9-2.2c0.7,0.5,1.4,1.1,2,1.7C70.5,63,70.3,63,70.3,63.3z"/>
	<path class="st1" d="M70.1,64.1c-0.3-0.1-0.7-0.5-1-0.8c-0.3-0.3-0.9-0.7-0.7-1.2c0.6,0.5,1.1,1.1,1.7,1.6
		C70.1,63.8,70.1,64,70.1,64.1z"/>
	<path class="st1" d="M53,87c0.3-0.3,0.4,0.7,0.8,0.8c0.1-0.1,0-0.4,0.2-0.5c1.1-0.8,2.2-1.9,3.5-2.7c0.4-0.2,0.9-0.6,1.3-0.7
		c1.2-0.3,2.8,0.2,4.1,0.2c0.6,0,1.3-0.1,1.9-0.1c0.9-0.1,1.7-0.3,2.3,0.1c0.1,1-1.4,1.9-2.2,2.5c-0.8,0.7-1.4,1.4-2.2,1.9
		c-2.3,1.3-5.5,1.2-8.5,0.4C53.7,88.4,53.3,87.8,53,87z M65.3,85c-1.9,0.5-4.6-0.1-6.9-0.1c2.1,1,5.5,1,7.1,0.1
		C65.4,85,65.4,85,65.3,85z"/>
	<path class="st1" d="M69.6,65c-0.5-0.6-1.3-1-1.4-1.9C68.7,63.7,70,64.2,69.6,65z"/>
	<path class="st1" d="M62.2,119.1c-0.6,0-1.6-0.7-2.5-1c-0.1-0.2-0.2-0.4-0.2-0.7C60.3,118.1,61.9,118.2,62.2,119.1z"/>
	<path class="st1" d="M69.3,65.7c-0.5-0.5-1.2-0.8-1.2-1.7C68.5,64.5,69.5,64.9,69.3,65.7z"/>
	<path class="st1" d="M68.1,71.8c-0.3-0.1-0.3-0.5-0.5-0.6c0.1-0.1,0.3-0.3,0.4-0.3C68.4,71,68.4,71.5,68.1,71.8z"/>
	<path class="st1" d="M71.5,45.4c-1.7-0.5-2.3-2.6-1.3-4.3c0.6,1.2,1.3,2.4,1.8,3.8C71.9,45.3,71.6,45.2,71.5,45.4z"/>
	<path class="st1" d="M67.6,68.5c-0.1-1-0.1-2.2,0.3-3.2c0.4,0.3,0.6,0.8,1,1.1C68.5,67.1,68,67.8,67.6,68.5z"/>
	<path class="st1" d="M61.7,117.9c-0.6,0-1.2-0.6-1.9-0.7C60.4,116.8,61.4,117.3,61.7,117.9z"/>
	<path class="st1" d="M69.6,59.3c-0.2,0.1-0.6-0.3-1-0.2c0-0.2,0.1-0.3,0.1-0.5C69.2,58.7,69.4,59,69.6,59.3z"/>
	<path class="st1" d="M67.5,72.7c-0.3-0.2-0.3-0.6-0.7-0.7c0.1-0.2,0.2-0.3,0.3-0.5C67.6,71.7,67.9,72.2,67.5,72.7z"/>
	<path class="st1" d="M61.6,107.4c-0.2,0.4-2.1,0.3-1.9-0.4C60.4,107.1,60.9,107.4,61.6,107.4z"/>
	<path class="st1" d="M67.2,63.8c-1.6-0.6-2.4-1.8-3.5-2.8c-0.3,0.2-0.4,0.8-0.4,1.4c-0.4-1.4-0.3-3.1-0.3-4.8
		c0-1.7-0.1-3.3-0.1-4.7c1.1-0.4,2,0.8,2.6,1.6c0.4,0.7,0.8,1.3,1.2,2.1C67.7,58.8,67.4,61.1,67.2,63.8z"/>
	<path class="st1" d="M66.5,67.1c-0.4-0.1-0.6-0.4-0.8-0.7c0.2-0.7,0.5-1.4,0.6-2.3C67.7,64.4,66.4,66,66.5,67.1z"/>
	<path class="st1" d="M60.8,104.2c-0.2-1.1-0.8-2-1.8-2.6c-0.1,1.1,1.2,1.7,1.2,2.9c-0.9,0.3-1.6,0.7-2.6,0.9
		c-0.1-1.7,1.1-3.2,1.3-5.2c1.5,0.7,1.5,2.4,2.3,3.5C61.3,104.2,61,104.2,60.8,104.2z"/>
	<path class="st1" d="M69.6,39.1c-0.6-1.3-1.6-2.7-2.8-3.4c0.6,1.6,2.1,2.5,2.3,4.3c-0.2,0.3-0.6,0.4-1,0.5
		c-0.7-1.2-2.8-2.3-2.4-3.9c0.2-0.8,1.4-1.7,2-2.4c0.8-0.9,1.5-1.6,2.1-2.3C70,34,70.8,36.9,69.6,39.1z"/>
	<path class="st1" d="M66.2,64c-0.3,0.6-0.5,1.3-0.6,2.2c-0.2-0.1-0.3-0.3-0.5-0.4c0.2-0.6,0.4-1.4,0.6-2
		C65.9,63.7,65.9,63.9,66.2,64z"/>
	<path class="st1" d="M64.1,77.5c-0.1,0.2-0.3,0.3-0.4,0.5c-0.3-0.1-0.4-0.3-0.6-0.5C63.4,77.4,63.8,77.5,64.1,77.5z"/>
	<path class="st1" d="M63.4,78.3c0,0.3-0.3,0.2-0.3,0.4c-0.3-0.2-0.6-0.5-0.8-0.9c0.2,0,0.3-0.1,0.4-0.2C63,77.8,63.2,78,63.4,78.3z
		"/>
	<path class="st1" d="M64.8,65.4c-0.5-0.1-0.1-0.7,0-1.1c0.1-0.4,0.2-1.1,0.4-1C65.2,63.8,64.9,64.8,64.8,65.4z"/>
	<path class="st1" d="M62.2,79.5c-0.3-0.1-0.4-0.5-0.7-0.6c0.1-0.3,0.3-0.5,0.5-0.7C62.6,78.5,63,79.2,62.2,79.5z"/>
	<path class="st1" d="M64.2,64.7c-0.6-0.4,0.2-1.4,0.2-2.1C65.2,63,64.2,63.9,64.2,64.7z"/>
	<path class="st1" d="M63.7,63.9c-0.6-0.5-0.1-1.4,0-2.3C64.4,62.1,63.9,62.9,63.7,63.9z"/>
	<path class="st1" d="M57.7,108.6c-1,0.3-2.3-0.8-3.1-1.2C56.2,107.2,56.6,108.1,57.7,108.6z"/>
	<path class="st1" d="M54.9,90.1c1.5,0.7,3.6,0,4.6,0.6c-0.3,0.7-3,0.5-4.1,0.1C55.1,90.7,54.9,90.3,54.9,90.1z"/>
	<path class="st1" d="M56.5,105c-0.3,0.1-0.5-0.4-0.7-0.6c-0.7-0.8-1.5-1.9-2-2.8c0.1,0.7,0.2,2.1-0.2,3.3c-0.8-0.5,0-2.3,0-3.1
		c-0.5,0.1-0.4,1.2-0.6,1.8c-0.6-0.5,0.2-1.9,0-2.8c-0.4,0.4-0.4,1.2-0.4,1.8c-0.3-1.4-0.3-3.4-0.1-5.4c0.1-1.5,0.4-6.3,2.1-5.3
		c0.4,0.2,0.9,1.4,1.3,2.1c0.9,1.4,1.6,2.5,1.7,4.4c-0.6-0.9-1.1-1.9-1.9-2.7c0,1.3,1.8,2.8,2,4.2C57.8,101.6,56.9,103.2,56.5,105z
		 M53.7,97.2c-0.2,0.2-0.3,0.3-0.3,0.7c0.1,0.3,0.8,0.4,1.1,0.3C54.9,97.7,54.2,97.3,53.7,97.2z"/>
	<path class="st1" d="M56.2,108.9c-1,0.6-2-0.5-2.8-0.9c0-0.4,0.4-0.4,0.6-0.5C54.6,108.1,55.4,108.5,56.2,108.9z"/>
	<path class="st1" d="M55,115.8c-1.3,0.2-3.6,0.4-5-0.2c-0.3-0.2-0.7-0.6-0.9-0.8c-1-1.3-1.5-3.5-1.7-5.3c0.7,0.2,1.6,0.2,2.1,0.5
		c0.6-0.4,1.6-0.2,2.3-0.3c-0.1-0.8-1.3-1.3-1.8-2c0.4,0,0.9,0.4,1.4,0.5c1,1.5,2.1,3.3,2.8,5.1C54.6,114.2,55.2,114.7,55,115.8z"/>
	<path class="st1" d="M58.3,91.8c-0.5,0.5-0.9,1-1.5,1.3c-0.2-0.6-0.9-1.2-1-1.6C56.6,91.6,57.5,91.7,58.3,91.8z"/>
	<path class="st1" d="M55.7,105.9c-0.2-0.1-0.2,0.1-0.4,0c0-0.3,0.1-0.6,0.1-0.9C55.7,105.2,56,105.5,55.7,105.9z"/>
	<path class="st1" d="M61.4,61.4C60.7,61.1,61,60,61,59.2c0.3,0.2,0.7,0.4,0.9,0.6C61.9,60.6,62,61.1,61.4,61.4z"/>
	<path class="st1" d="M61.9,59.1c-1.3-1-2.5-2-3.7-3.1C58,54,58,52,57.9,49.9c-0.5,0.6-0.3,1.8-0.3,2.7c0,1,0,2,0.1,2.8
		c-0.1,0-0.1-0.1-0.3-0.1c-0.1,0.4,0.7,0.7,0.3,1.5c-0.9-2.4-0.9-6.3-0.4-9.3c0.9,0.1,1.7,0.6,2.1,1.2c1.1,1.3,1.8,2.6,2.1,4.5
		c0.3,1.7,0.4,3.6,0.4,5.9C61.9,59,61.9,59.1,61.9,59.1z"/>
	<path class="st1" d="M54.7,106c-0.2-0.2,0.2-1.2,0.2-1.7C55.3,104.5,54.9,105.7,54.7,106z"/>
	<path class="st1" d="M54.5,109.2c-0.6,0.4-1.3-0.1-1.2-0.8C53.6,108.7,54,108.9,54.5,109.2z"/>
	<path class="st1" d="M59.8,59.9c0.1-0.5,0.1-1,0-1.4c0.9,0,0.9,1.2,0.9,2C60.4,60.8,60.2,59.9,59.8,59.9z"/>
	<path class="st1" d="M57.3,84.1c-0.3,0.3-0.8,0.5-1.1,0.7c-0.2-0.1-0.4-0.3-0.4-0.5C56.3,84.2,56.8,84.1,57.3,84.1z"/>
	<path class="st1" d="M54.3,105.8c-0.3-0.1-0.4-0.3-0.6-0.5c0.2-0.6,0.3-1.3,0.4-2C54.8,103.6,54.4,104.8,54.3,105.8z"/>
	<path class="st1" d="M55.5,42c-1-1-1.7-2.2-2.5-3.2c1.3-1.3,3.7-1.2,6.2-1.3c0.6,0,1.3-0.1,1.8-0.1c0.5-0.1,1.1-0.4,1.5-0.1
		c0.1,0.7-0.8,1.7-1.3,2.3C59.9,41.2,58,41.9,55.5,42z"/>
	<path class="st1" d="M59.4,59.2c-0.4,0.2-0.7-0.9-0.6-1.6C59.5,57.7,59.3,58.6,59.4,59.2z"/>
	<path class="st1" d="M55.1,85.5c-0.1-0.2-0.2-0.3-0.3-0.4c0.1-0.3,0.4-0.3,0.5-0.5C56,84.9,55.6,85.5,55.1,85.5z"/>
	<path class="st1" d="M54.5,86.3c-0.1-0.3-0.4-0.5-0.4-0.8c0.1,0,0.1,0,0.2-0.1C54.9,85.4,54.8,86,54.5,86.3z"/>
	<path class="st1" d="M58.5,58.1c-0.4,0.2-0.1-0.8-0.2-1.3C58.5,57.1,58.3,57.8,58.5,58.1z"/>
	<path class="st1" d="M51.1,109.3c-0.2,0.2-0.4-0.2-0.7-0.1c-0.5-0.9-1.6-1.3-2.2-2.2C49.5,107.6,50.1,108.7,51.1,109.3z"/>
	<path class="st1" d="M53.6,87.1c-0.1-0.3-0.2-0.6-0.4-0.8c0.2-0.2,0.3-0.4,0.6-0.5C54.1,86.2,54.3,87.1,53.6,87.1z"/>
	<path class="st1" d="M61.6,24c-0.2,0.6-0.7,0.9-1.1,1.4c-0.6-0.6-1.1-1.2-1.7-1.7C59.7,23.4,60.7,23.7,61.6,24z"/>
	<path class="st1" d="M51.3,97.5c-1.7-1.4-2.7-3.2-4-4.8c0,0.5,0.1,1.5,0.1,2.2c-0.8-1.5-0.5-4.6-0.2-7.3c0.1-1.5-0.3-3.2,0.7-3.8
		c1.5,1.5,3,3,3.8,5.2c0.4,1,0.8,2.6,0.6,3.7c-0.1,0.5-0.4,1-0.5,1.6C51.4,95.2,51.4,96.3,51.3,97.5z M48.3,89.8
		C48.4,91.7,50.1,89.1,48.3,89.8L48.3,89.8z M49,87.8c-0.8-0.3-1.1,0.8-0.3,0.8C49,88.5,49.2,88,49,87.8z"/>
	<path class="st1" d="M50.6,99.3c0-0.6-0.1-1-0.1-1.6c0.3,0.2,0.4,0.4,0.7,0.6C51.1,98.9,51.4,99.5,50.6,99.3z"/>
	<path class="st1" d="M49.7,109.1c-1.3-0.1-1.8-1.5-2.8-2C48.3,107.1,48.6,108.5,49.7,109.1z"/>
	<path class="st1" d="M58.5,42.8c-0.3,0.6-0.8,0.8-1,1.4c-0.5-0.3-1.1-0.9-1.1-1.4C57.1,42.9,57.9,42.3,58.5,42.8z"/>
	<path class="st1" d="M50.2,99.2c-1.1-0.2-0.6-1.6-0.7-2.5C50.3,97,50.1,98.2,50.2,99.2z"/>
	<path class="st1" d="M56,54.9c-0.5-0.2-0.9-0.3-1.3-0.6c0.1-0.6,0-1,0-1.5c0.5,0.3,0.9,0.7,1.3,1.1C55.9,54.2,56.1,54.5,56,54.9z"
		/>
	<path class="st1" d="M57.4,28.9c-0.4-0.3-0.6-0.8-0.9-1.2c-1-1.2-2.5-1.9-3.6-3.1c0.5-0.6,1.3-0.9,2.5-0.8c0.5,0,1.1,0.4,1.7,0.5
		c0.2,0,0.5,0,0.6,0c1.1,0.4,1.6,1.4,2.1,2C59,27.2,58.2,28,57.4,28.9z"/>
	<path class="st1" d="M55.9,52.7c-0.5,0.1-1.2-0.8-1.6-1.2c-0.6-0.4-1.1-1-1.7-1.5c-0.1-1.8-0.4-3.4-0.4-5.4
		c-0.7,1.6,0.2,3.5-0.2,5.1c0.3,0.5,0.1,1.1,0.1,1.9c-1.1-2.4-1-6.7-0.1-9.9c1.1-0.2,1.7,1.1,2.2,1.7c0.6,0.8,1.1,1.6,1.3,2.5
		C56,47.9,55.7,50.3,55.9,52.7z"/>
	<path class="st1" d="M48,108.8c-0.6,0.2-0.9-0.3-0.8-0.8C47.5,108.2,47.6,108.6,48,108.8z"/>
	<path class="st1" d="M49,98c-0.6-0.4-0.3-1.4-0.3-2.2C49.3,96.1,48.9,97.1,49,98z"/>
	<path class="st1" d="M54.2,53.7c-0.7-0.4-1-1-0.8-2C54.1,52,54.2,52.8,54.2,53.7z"/>
	<path class="st1" d="M56.2,34.1c-0.1-0.1-0.1-0.4-0.2-0.6c0.1-0.1,0.3-0.1,0.4-0.3C56.8,33.5,56.4,33.9,56.2,34.1z"/>
	<path class="st1" d="M55.3,31.3c-1.3,0.2-2.2-0.5-3.3-0.9c0.9-0.5,2.3-0.3,3.3-0.6c-0.5-0.6-1.4-0.3-2.1-0.2
		c-0.7,0.1-1.5,0.3-2,0.4c-1.2-0.5-2.1-1.1-3.6-1.6c-0.9-0.3-3.6-0.7-3.6-1.6c0-0.4,1.4-1.2,1.9-1.4c1-0.4,2.1-0.7,2.8-0.7
		c0.3,0,0.9,0,1.2,0.1c3,0.6,5.1,3.3,6.7,4.8C56.3,30.2,55.8,30.8,55.3,31.3z M50.5,28.4c-0.3-0.1-0.5,0.2-0.7,0.5
		C50.3,30,51.5,28.5,50.5,28.4z M48.8,28c0.1,0,0.1,0.1,0.1,0.2C50.4,28.4,49,26.6,48.8,28z"/>
	<path class="st1" d="M55.4,35.2c-0.1-0.5-0.3-1.2,0.2-1.5C55.9,34.2,55.8,34.8,55.4,35.2z"/>
	<path class="st1" d="M53,52.5c-0.1-0.1-0.3-0.2-0.3-0.4c0.3-0.3,0.1-0.6,0.1-1.1C53.1,51.2,53,51.9,53,52.5z"/>
	<path class="st1" d="M46.7,96.9c-1.8,0.3-3.9,0.3-6.1,0.1c1.2-1.2,4.1-0.1,5.9-0.4C46.5,96.7,46.6,96.8,46.7,96.9z"/>
	<path class="st1" d="M29.8,106.2c-0.3-1.2,0.5-1.8,1.4-2.7c0.9-0.9,1.8-1.6,3.2-1.7c-1.1,1-2.1,2.1-3,3.4c0.9-0.2,1.4-1.1,2.1-1.8
		c0.5-0.6,1.4-1.5,2.1-1.7c0.7-0.2,1.8,0,2.6,0c2.6,0,5.1,0,7.5-0.3c0,0.2,0.2,0.2,0.3,0.3c-0.6,0.5-1.3,1.3-2.2,2
		c-0.7,0.6-1.4,1.4-2,1.8c-1.3,0.8-3.5,1-5.3,1.1c-1,0.1-1.9,0.1-3,0.1C32.2,106.5,30.8,107,29.8,106.2z M41.3,102.6
		c-0.5-0.2-0.8,0.5-0.5,0.9C41.5,103.8,41.7,102.9,41.3,102.6z M39.2,102.7c-0.5,0-0.6,1,0.2,0.9C39.7,103.5,39.8,102.7,39.2,102.7z
		 M36.6,102.7c0,0.3,0.1,0.5,0.4,0.5C37.7,103,37.1,102.1,36.6,102.7z"/>
	<path class="st1" d="M53.5,36.7c-0.1-0.5,0.4-0.8,0.6-1.2C54.5,36.2,54.5,36.9,53.5,36.7z"/>
	<path class="st1" d="M45.5,95.4c-0.6,0.2-1.6-0.1-2.3-0.1c-0.1-0.3,0.9-0.8,1.3-1C44.9,94.5,45.1,95,45.5,95.4z"/>
	<path class="st1" d="M43.6,107.2c-0.3,0.1-0.8-0.3-1.2-0.4c0.1-0.3,0.3-0.4,0.5-0.6C43.2,106.5,43.3,106.9,43.6,107.2z"/>
	<path class="st1" d="M45.6,91.8c-0.1,0.2-0.2-0.1-0.3,0c-0.1-0.6-0.1-1.2-0.2-1.8C45.8,90.3,45.6,91.2,45.6,91.8z"/>
	<path class="st1" d="M45.7,89.6c-0.5,0.1-0.7-0.5-1.1-0.9c-1-1-2.3-2.1-2.8-3.5c-0.1-0.3-0.3,0-0.4-0.1c-0.1-1.9,0.3-4.5,0.5-6.4
		c0.1-0.3,0.5-0.2,0.8-0.4c0.8,0.7,1.4,1.6,2.3,2.3C46.1,83,46.1,86.1,45.7,89.6z"/>
	<path class="st1" d="M44.8,91.3C43.9,91.1,44,90,44,89C44.8,89.4,44.7,90.4,44.8,91.3z"/>
	<path class="st1" d="M49.8,52.4c0.2,0.6-0.3,1.1-0.4,1.5c-2.4,1.7-6.3,1.4-9.9,1.6c0-0.2-0.2-0.3-0.1-0.6c0.6,0,1.2,0.2,1.5-0.3
		c-0.4-0.3-1.1-0.1-1.5-0.1c0-0.3,0.1-0.5,0.3-0.7c0.7,0.2,1.5,0.3,2.1,0.1c-0.2-0.5,0.3-1,0.8-1.1c0.1-0.3-0.2-0.2-0.1-0.5
		c0.5-0.4,0.8-1.1,1.3-1.5c1.3,0,3.3-0.5,4.6-0.6c0.7-0.1,1,0.4,1.4,0.9c-0.2,0.9-0.6,1.5-0.9,2.3C49.1,53.5,49.6,52.9,49.8,52.4z"
		/>
	<path class="st1" d="M44.1,93.9c-0.3-0.1-0.2,0.3-0.6,0.2c0-0.4-0.1-0.8-0.3-1.1C43.5,93,44,93.5,44.1,93.9z"/>
	<path class="st1" d="M50.4,46.4c-0.2,0.3-0.5-0.3-0.6-0.6c-0.2,0-0.4,0.1-0.4-0.1c-1.1-0.9-1.9-2-2.9-3.1c0.1-2,0.2-4,0.4-5.9
		c-1,1.3-0.2,3.9-0.9,5.4c0.2,0.6,0.2,1.3,0.1,2.1c0.3-0.1,0.2-0.7,0.4-1c0.5,0.3,0.4,1.1,0.2,1.8c-0.2,0.1-0.5-0.3-0.6-0.6
		c-0.4-0.8-0.5-2.2-0.5-3.4c0.1-1.6,0.7-3.3,0.8-4.8c0-0.2-0.1-0.5,0-0.7c0.6-1.6,2.8-0.1,3.1,1.1c0.2,0.9,0,2.8,0.1,3.9
		c0.1,1.4,0.3,2.6,0.4,3.6c0.3-2.3-0.1-4.7-0.2-7c0.1-0.2,0.6,0.5,0.7,0.8C51,39.9,50.3,43.8,50.4,46.4z"/>
	<path class="st1" d="M42.9,94.6c-0.2-0.3-0.1-0.8-0.3-1.1c0.1-0.2,0.3-0.2,0.4-0.3C43.1,93.6,43.4,94.4,42.9,94.6z"/>
	<path class="st1" d="M43.6,90.2C43,90.3,43,88.8,43,87.9C43.8,88.3,43.5,89.4,43.6,90.2z"/>
	<path class="st1" d="M51.7,31.2c-2.3,0.9-4.2,2.2-7.5,1.7c1.2-1,2.8-1.2,4.1-2c-1.9,0-3.6,0.9-5,1.8c-2.3-0.4-4.3-0.3-6.4-0.4
		c-0.1-0.3-0.4-0.4-0.5-0.6c1.3-1.5,3.1-2.3,4.8-3.3C45.4,28.3,48.7,29.9,51.7,31.2z"/>
	<path class="st1" d="M42.1,95.2c-0.4-0.1-0.2-0.6-0.4-0.9c0.1-0.3,0.4-0.3,0.5-0.6C42.3,94.2,42.8,95.1,42.1,95.2z"/>
	<path class="st1" d="M35.2,61.9c0.5-0.3,1.1-0.5,1.7-0.7c0.9-1.5,2-2.8,3.2-4c2.1-0.1,3.8-0.7,6.3-0.2c-0.4,1.2-1.3,2.3-1.7,3.2
		c1.1-0.6,1.6-2,2.2-3.1c0.2,0,0.5,0.1,0.7,0.1c0,0.1,0,0.1,0,0.2c-1,2.7-2.7,4.2-5.5,4.8c-1.5,0.4-3.3,0.6-4.7,0.6
		C36.6,62.6,35.7,62.4,35.2,61.9z"/>
	<path class="st1" d="M40.1,111.4c-0.6-0.1-0.8-0.5-1.4-0.7c0.3-0.7,0.9-1,1.3-1.6C40.1,109.9,40.1,110.6,40.1,111.4z"/>
	<path class="st1" d="M42.7,88.7c-0.5,0.1-0.6-1.4-0.7-2.1C42.6,87,42.6,87.9,42.7,88.7z"/>
	<path class="st1" d="M41.6,95.1c-0.2,0.3-0.6,0-0.8-0.1c0.1-0.3,0.3-0.3,0.5-0.6C41.5,94.6,41.3,95,41.6,95.1z"/>
	<path class="st1" d="M42.6,50.1c0-0.2,0-0.4,0.1-0.5c0.6,0,1.1-0.1,1.6-0.2c0-0.1,0-0.2-0.1-0.3c0.7-0.6,1.3-1.3,2-1.9
		c0.7,0.5,1,1.3,1.6,1.9C46.7,50.2,44.2,49.6,42.6,50.1z"/>
	<path class="st1" d="M47.9,46.9c-0.6-0.6-1.1-1.2-0.7-2.5C47.9,44.9,47.7,46,47.9,46.9z"/>
	<path class="st1" d="M38.9,108.3c-2.9,3.9-8.5,4.3-14.2,4.6c-0.4-1.8,1.1-2.9,2.3-3.9c0.7-0.6,1.5-1.1,2.3-1c-1,1-2,2-2.7,3.3
		c0.4,0.1,0.6-0.4,0.9-0.7c0.8-0.8,1.8-1.8,2.6-2.5C33.2,108.4,36.2,108.6,38.9,108.3z M31.7,109.2c-0.2,0.1-0.3,0.7-0.1,0.8
		c0.1,0,0.3,0,0.4,0.1C32.3,109.9,32.4,109.1,31.7,109.2z"/>
	<path class="st1" d="M41.7,86.7c-0.2-0.3-0.1-0.8-0.2-1.2C41.8,85.9,41.7,86.2,41.7,86.7z"/>
	<path class="st1" d="M39.9,96.6c-0.2,0.5-0.9,0.3-1.5,0.3C38.9,96.8,39.4,96.7,39.9,96.6z"/>
	<path class="st1" d="M32.2,68c0.7-1.8,1.2-3.8,3.1-4.1c-0.6,0.8-1.1,1.9-1.5,3c1-0.8,1.5-2.3,2.3-3.2c1.7-0.2,3.4-0.3,5.2-0.6
		c0.5-0.1,1.3-0.4,1.6-0.3c1.6,0.3,0.2,2.5-0.4,3.1c-0.8,0.8-2.8,1.6-4.2,1.9c-0.7,0.2-1.6,0.4-2.4,0.5C34.4,68.6,33.1,69,32.2,68z"
		/>
	<path class="st1" d="M45.8,46.7c-0.3,0.5-0.8,0.7-1.5,0.7C44.5,46.9,45,46.6,45.8,46.7z"/>
	<path class="st1" d="M40.3,86c-0.3,0-0.4-0.1-0.6-0.2c0-0.6-0.1-1.1-0.2-1.7c0.3,0.1,0.5,0.3,0.7,0.4C40.2,85.1,40.3,85.5,40.3,86z
		"/>
	<path class="st1" d="M40.3,83.7c-0.5,0-1.5-1.1-1.9-1.6c-1.1-1.6,1.1-5,1.4-7c1.9,1.7,0.3,5.6,0.5,8.5
		C40.3,83.6,40.3,83.7,40.3,83.7z"/>
	<path class="st1" d="M44.7,47.8c-0.1,0.5-0.7,0.5-1.2,0.5C43.8,47.8,44.2,47.8,44.7,47.8z"/>
	<path class="st1" d="M39.2,85.4c-0.8-0.3-0.5-1.5-0.7-2.4C39.3,83.5,39.1,84.6,39.2,85.4z"/>
	<path class="st1" d="M44,48.6c0.2,0.2-0.3,0.3-0.1,0.5c-0.4,0-0.7,0.1-1.1,0.1C43,48.7,43.5,48.7,44,48.6z"/>
	<path class="st1" d="M44.4,42c-0.5-0.2-0.4-0.5-0.1-0.7C44.6,41.4,44.4,41.7,44.4,42z"/>
	<path class="st1" d="M45.1,36.4c0.1,1-0.4,1.9-0.4,3c-0.3,0-0.9-0.9-1.1-1.3C43.9,37.4,44.6,37,45.1,36.4z"/>
	<path class="st1" d="M43.8,41.3c-0.3-0.2-0.4-0.5-0.6-0.7c0.3-0.2,0.6-0.3,0.9-0.6C44.8,40.4,44.3,41,43.8,41.3z"/>
	<path class="st1" d="M42.9,51.1c-0.1,0.2-0.3,0.3-0.4,0.6c-0.4-0.1-0.6,0-0.9-0.1C42,51.3,42.4,51.1,42.9,51.1z"/>
	<path class="st1" d="M38.2,84.4c-0.6-0.5-0.7-1.4-0.4-2.4C38.2,82.6,38,83.6,38.2,84.4z"/>
	<path class="st1" d="M20.9,118.6c0.2-0.8,0.6-1.8,1.1-2.5c0.7-1,1.6-2,3.1-1.9c-0.9,0.8-1.7,2.4-1.9,3.7c0.7-0.4,0.9-1.4,1.3-2.1
		c0.4-0.7,1-1.2,1.5-1.8c1.7-0.2,3.7-0.3,5.4-0.6c0.9-0.2,1.8-0.7,2.3,0.1c-1.5,2.6-3.9,4.4-7.3,4.7c-1,0.1-2,0.1-3,0.2
		C22.7,118.6,21.7,119,20.9,118.6z"/>
	<path class="st1" d="M42.2,52c-0.1,0.3-0.3,0.5-0.5,0.7c-0.5,0-0.9,0-1.3,0.1c0,0.4,0.8,0.3,1,0.2c0.2,0.2-0.1,0.5-0.2,0.6
		c-0.5,0-1.1,0-1.6,0.1C40.3,52.8,40.6,51.6,42.2,52z"/>
	<path class="st1" d="M44.5,34.6c-0.4,0.3-0.9,0-1.3-0.1c-3.5-0.5-6.9,0.1-10.1,0.2c0.7-0.2,1.1-1,1.9-1.2c0.6-0.2,1.8-0.1,2.8-0.1
		c1.5,0,2.6,0.1,4.2,0.3c0.2-0.2,0.2,0.1,0.3,0.2c0.5-0.2,1.2-0.1,1.9,0C44.3,34.2,44.5,34.3,44.5,34.6
		C44.5,34.6,44.5,34.6,44.5,34.6z"/>
	<path class="st1" d="M43,40.2c-0.2,0-0.1-0.2-0.3-0.3c0.1-0.4,0.6-0.4,0.8-0.7C44.2,39.7,43.4,40,43,40.2z"/>
	<path class="st1" d="M30.1,102.5c-0.3-3,1.8-4.4,3-6c0.4,0.4,0.3,1.1,1,1.2c0.1-0.5-0.4-1.1-0.4-1.7c0.3-0.5,0.8-0.8,1.3-1.2
		c0.5,0.5,0.4,1.5,0.8,2.2C34,98.9,31.8,100.4,30.1,102.5z"/>
	<path class="st1" d="M44.2,35.1c-0.2,0.2-0.4,0.5-0.7,0.6c-0.7-0.1-1.5-0.2-2.2-0.3c-0.2,0-0.3-0.1-0.2-0.3c-0.3,0-0.3,0.2-0.6,0.2
		c-2.8-0.2-5.2,0.1-7.9-0.1c0.4-0.7,1.4-0.3,2.1-0.3C37.6,35,40.6,34.4,44.2,35.1z"/>
	<path class="st1" d="M43.5,38.7c-0.3,0.2-0.7,0.6-1,0.6c0-0.1,0-0.1-0.1-0.2c0.4-0.2,0.5-0.6,1-0.6C43.4,38.7,43.4,38.7,43.5,38.7z
		"/>
	<path class="st1" d="M43.1,36.1c-1.2,1.2-2.7,1.8-4.7,1.9c0.6-0.8,1.4-1.4,2.1-2.1C41.3,35.8,42.3,36,43.1,36.1z"/>
	<path class="st1" d="M29.2,96.9c0.1-0.6-0.1-1.1-0.1-1.8c-0.1-0.5-0.4-1.4-0.2-1.8C29,93,30.6,92,31,91.8c1.2-0.7,2.3-1.8,3.9-1.3
		c0,0.8,0,1.5,0.1,2.2c-1.3,2.7-4.1,3.5-5.3,6.3C29.3,99,29,99.1,28.5,99c-0.5-1.6-2-4-0.2-5.3C28.6,94.8,28.7,96,29.2,96.9z"/>
	<path class="st1" d="M39.3,57.3c-0.3,0.6-1.2,0.5-1.7,0.7C38,57.6,38.6,57.5,39.3,57.3z"/>
	<path class="st1" d="M26.8,91.5c-0.6-1.8,0.1-4.4,1.6-5c-0.3,1.6-0.3,3.2-0.3,4.3c0.5-0.3,0.3-1.1,0.4-1.8c0.1-0.9,0.3-2,0.4-2.9
		c1.8-0.9,3.8-1.6,5.6-2.6c1.2,0.7,0.2,4.1-0.6,5.2c-0.5,0.7-1.7,1.1-2.5,1.6c-0.9,0.6-1.8,1.1-2.5,1.5
		C28.2,91.9,27.4,91.9,26.8,91.5z"/>
	<path class="st1" d="M37.7,28.5c0-0.3,0.2-0.3,0.4-0.5c0-0.2,0.1-0.4,0.1-0.6c0.5-0.8,1-1.7,1.5-2.7c0.4-1,0.5-2.2,1.1-3.1
		c0.1,1.4-0.6,4-1.4,5.2c1.3-0.7,1.5-2.9,1.9-5c0.7,1,1.1,2.3,1.7,3.4C41.3,26.3,39.3,27.5,37.7,28.5z"/>
	<path class="st1" d="M37.5,59.3c0,0.6-1,0.6-1.5,0.8C36.2,59.5,37,59.6,37.5,59.3z"/>
	<path class="st1" d="M37.1,60.1c0,0.9-1,1.1-1.7,1.2C35.5,60.4,36.5,60.5,37.1,60.1z"/>
	<path class="st1" d="M18.7,123.9c0.4-2.3,1.4-3.9,3.5-4c-1,0.8-1.9,2.6-1.8,4.2c0.5-0.3,0.6-1,0.8-1.5c0.5-1.2,1.2-2.2,2-2.9
		c1.8-0.1,3.7-0.6,5.4-0.5c0.3,0,0.2,0.3,0.4,0.4c-0.6,0.6-1.4,2-2.1,2.8c-1.3,1.3-3.4,1.4-5.5,1.8
		C20.2,124.3,19.2,124.8,18.7,123.9z"/>
	<path class="st1" d="M34.9,43c0.3-0.8,0.8-1.3,0.9-2.3c-1,0.3-1.3,1.6-1.7,2.6c-1.5,0.4-3.2,0.8-4.8,1.3c-0.7,0.2-1.9,0.8-2-0.1
		c-0.2-1.3,1.6-2.9,1.8-3.9c2.6-1.5,6.8-1.3,10.1-1.6c0,0.2,0.2,0.3,0.2,0.5C38.7,41.1,36.6,42.7,34.9,43z"/>
	<path class="st1" d="M39.7,35.8c-0.8,0.6-1.5,1.4-2.2,2.2c-1.1,0-2.4,0.1-3.6,0.2c-1.1,0.1-2.4,0.5-3.2-0.3c0.5-0.9,1-1.7,1.6-2.4
		C35,35.8,37.3,35.7,39.7,35.8z"/>
	<path class="st1" d="M33,62.5c-0.1-1.2-0.2-2.4-0.5-3.4c-0.5,1.5,0.2,3-0.2,4.4c-0.3,0.9-1.4,1.8-2,2.6c-0.7,1-1.3,1.9-1.9,2.8
		c-0.7-0.2-0.9-1.1-1.2-1.9c-0.4-1.6-0.8-3,0.2-5c0.3-0.5,1-1.2,1.5-1.8c1.1-1.3,1.8-2,3.2-2.9c0.9-0.6,1.6-1.5,2.2-0.7
		c-0.2,1.1,0.3,2,0.2,2.9C34.5,60.6,33.3,61.4,33,62.5z M31.1,59.7c-0.4,0.1-0.4,0.9,0.3,0.8C31.6,60.3,31.6,59.7,31.1,59.7z
		 M29.6,62.7c1.3,0.1,0.1-1.8-0.6-0.5C29.3,62.4,29.3,62.6,29.6,62.7z"/>
	<path class="st1" d="M36.5,44.8c-3,0.3-5.5,1.4-7.5,3c1.7-0.4,3.1-1.3,4.7-1.9c-0.4,1.1-1,2.7-1.2,4.3c-0.8,0.4-1.8,0.9-2.9,1.3
		c-1.3,0.5-2.6,1.5-4.1,0.7c-1.3-6.9,6.2-6.9,10.4-8.2C36.2,44.1,36.4,44.4,36.5,44.8z"/>
	<path class="st1" d="M37.6,26.5c-1.5-1.6,0.9-3.4,1.5-5.6c0.4-1.4,0.2-2.5,0.2-4.1C40.9,19.5,38.8,24.1,37.6,26.5z"/>
	<path class="st1" d="M36.3,45.4c-0.7,1.9-1.5,3.6-3,4.4c0-1.4,0.8-2.8,1.1-4.1C35,45.5,35.6,45.3,36.3,45.4z"/>
	<path class="st1" d="M22.5,130.1c-1.3-1.1-4.2-2-2.9-4.3c1.3-0.4,3.5-1.1,5-0.1C23.9,127.3,22.9,128.3,22.5,130.1z"/>
	<path class="st1" d="M32.9,54.9c-0.1-0.5,0.1-1.2-0.3-1.5c-0.4,0.4-0.3,1.6-0.5,2.1c-0.2,0.4-1,1.1-1.6,1.6
		c-0.4,0.4-1.1,0.8-1.6,1.3c-0.5,0.5-1.4,1.7-2.2,1.6c-0.9-0.1-1.8-2.6-1.5-3.7c0.1-0.5,0.8-1.2,1.2-1.6c0.9-0.7,2.2-1.3,3.7-2.1
		c0.6-0.3,1.1-0.7,1.8-1.1c1.1-0.5,2.5-1.4,2.7,0.1C34.8,53.2,33.5,54.1,32.9,54.9z"/>
	<path class="st1" d="M36.7,24.7c-0.4-0.3-0.3-1-0.8-1.2c-0.2,0.4,0.3,0.8,0.2,1.4c-0.5,0-0.5,0.8-0.9,0.9c-0.8-0.9,0.9-1,0.7-1.9
		c-0.5,0-0.5,0.7-1,0.6c-0.4-0.7,1-0.7,0.8-1.5c-0.5,0-0.6,0.5-1,0.7c-0.1-0.5,0.1-1.4,0.7-1.3c0.1-0.3-0.2-0.2-0.3-0.4
		c0.7-2.5,1.9-4.3,2.6-6.8c0.4,0.3,0.8,0.5,1.1,0.9c0.1,1.6,0.3,3-0.1,4.7C38.2,22.2,37,23.4,36.7,24.7z"/>
	<path class="st1" d="M36,27.9c0-0.1,0-0.1-0.1-0.2c0.3-0.4,0.6-0.7,0.9-1.1C37.2,27,36.4,27.7,36,27.9z"/>
	<path class="st1" d="M35.5,27.1c0-0.3-0.2-0.6-0.2-0.9c0.4-0.2,0.7-0.4,0.9-0.9C36.8,25.9,36.1,26.9,35.5,27.1z"/>
	<path class="st1" d="M30.3,68.3c-0.1,0.9-0.7,2-1,3.1C28.9,70.2,29.8,69.1,30.3,68.3z"/>
	<path class="st1" d="M34.4,20.5c-0.7-1-1.1-2.2-1.6-3.5c-0.2-0.3-0.5-0.9-0.5-1.2c0-0.5,0.8-1.5,1.2-2.1c0.7-1.3,1.7-2.4,1.3-4.5
		c-0.5,2.8-1.9,4.4-2.8,6.7c0.2,0.1,0.2,0.1,0.3,0.4c0.1,2.1,0.9,3.6,1.7,5c-0.1,0.4-0.2,0.9-0.3,1.2c-0.4,0-0.6-0.5-0.9-0.8
		c-0.2-0.4-0.5-0.8-0.7-1.2c-0.7-1.5-1.2-2.6-0.9-4.8c0.4-3.1,3.2-4.9,3.6-8.1c1.1,1.3,2.1,3.1,2,5.2C36.8,15.7,35,18.1,34.4,20.5z"
		/>
	<path class="st1" d="M30.9,12.9c-0.9-1.2-1.1-3-2-4.2c0.1,1.7,0.8,3.6,1.7,4.9c-0.1,0.2-0.2,0.6-0.2,0.9c-1.7-1.5-2.2-3.9-2.8-6.1
		c0.4-1.5,1.1-2.2,2.6-2.8c1.4-0.5,3.2-1.2,4.3,0.4C33.5,8.6,32.2,10.8,30.9,12.9z"/>
	<path class="st1" d="M79.8,91.2c0.1,0.2,0.4,0.3,0.5,0.6c-0.5,4.9-4.2,5.5-7.8,6.3c0.7-1,1.2-2.6,1.3-4c-0.4,0.2-0.4,0.9-0.6,1.2
		c-0.6-0.1-0.9,0-1.3,0C74,93.4,77.2,92.6,79.8,91.2z"/>
	<path class="st1" d="M69.9,69.6c-0.1,0.5-0.9,0.9-1.2,1.5C67.7,70.3,69.5,70.1,69.9,69.6z"/>
	<path class="st1" d="M62.7,26.1c-1.1,1.3-2.7,2.6-3.5,4.5c0.9-0.5,1.5-1.6,2.3-2.5c0.7-0.7,1.7-2,2.6-2.3c0.9-0.3,2.3-0.3,3.5-0.4
		c1.7-0.1,2.9-0.4,4.9-0.1c-0.3,2.8-2.4,3.9-4.5,4.9c-1.8,0.8-3.6,0.8-5.9,0.9c-1.4,0.1-3.5,0.7-3.8-0.6
		C59.3,29,60.5,26.7,62.7,26.1z M68.8,27.7c0.6,0.2,0.7-0.9,0.1-1.2C68.3,26.7,68.3,27.6,68.8,27.7z M66.9,27.6
		c0.5,0.8,1.3-0.4,0.5-0.7C67.1,26.9,66.9,27.1,66.9,27.6z M65,26.9c-1.5-0.1,0.7,1.9,0.3,0.4C65.3,27,65.2,26.9,65,26.9z"/>
	<path class="st1" d="M65.3,76.4c-0.1,0.5-1,0.7-1.7,0.8C64.1,76.8,64.7,76.7,65.3,76.4z"/>
	<path class="st1" d="M45.8,108.5c0-1-0.8-1.8-1.3-2.7c0.3,0,0.6,0.6,1,0.8c0.8,2.4,0.9,5.3,1.6,7.8c-1.6,0.3-4.7-0.8-5.6-2.1
		c-1-1.3-0.6-3.2,0.2-4.8c1.2,0.4,2.4,1,3.7,1.1c-0.3-0.5-1-0.6-1.4-0.9c-0.1-0.7-0.4-1.1-0.6-1.7c0.2-0.3,0.3-0.6,0.8-0.5
		C44.3,106.7,45,107.6,45.8,108.5z"/>
	<path class="st1" d="M48.3,96.7c-0.5-0.5-0.4-1.5-0.5-2.3C48.3,94.6,48.4,95.7,48.3,96.7z"/>
	<path class="st1" d="M49.1,47.8c0.2-0.4,0-1,0-1.4c0.7,0.2,0.5,1.2,0.8,1.8c0.1-0.1,0.2-0.8,0.1-0.9c0.5-0.2,0.5,1,0.1,1.4
		c-0.7-0.4-1.2-0.8-1.8-1.2c0.1-0.7,0-1.2-0.2-1.8C49,45.6,48.3,47.4,49.1,47.8z"/>
	<path class="st1" d="M39.3,107.6c-0.9,0.5-2.2,0.4-3.5,0.4c-1.4,0-3.3,0-4.1-0.2c1.2,0,2.7-0.1,4-0.2
		C36.8,107.6,38.1,107.2,39.3,107.6z"/>
	<path class="st1" d="M32.7,70.4c-0.6,1.3-1.8,3-1.9,5c1-1.8,1.6-4.1,2.9-5.5c1.1-0.4,2.4-0.5,3.6-0.8c1.1-0.3,2.4-1.1,3.5-0.4
		c0,0.8-0.5,1.4-0.8,2c-0.3,0.7-0.5,1.5-0.9,2.1c-0.3,0.5-1.2,1.1-1.9,1.5c-0.7,0.4-1.4,1-2,1.2c-0.9,0.4-2.1,0.6-3.1,1
		c-1,0.4-2.2,1-3.1,0.6C29.9,74.4,30.6,71.4,32.7,70.4z M37.8,70.5c0.2,0.3,0.6,0.2,0.8,0C38.9,69.7,37.7,69.7,37.8,70.5z M36,70.6
		c-0.1,0.6,1.2,0.8,0.9,0C36.8,70.1,36.1,70.2,36,70.6z M34.1,70.7C33.7,71.5,35,71.7,35,71C35,70.6,34.4,70.4,34.1,70.7z"/>
	<path class="st1" d="M29.6,78.8c-0.5,1.2-1.4,3-1.2,4.8c0.7-1.6,1.2-3.7,2.1-5.1c1-0.5,1.9-0.8,3.2-1.2c0.9-0.3,3.8-1.8,4-0.2
		c0,0.3-0.3,1-0.4,1.4c-0.9,2.8-2.8,4-5.2,5.1c-1.5,0.7-2.8,1.4-4.8,1.3C27.5,82.2,28.1,79.9,29.6,78.8z"/>
	<path class="st1" d="M38.3,58.2c-0.2,0.6-1.3,0.8-2,1.1C36.7,58.4,37.7,58.6,38.3,58.2z"/>
	<path class="st1" d="M66.8,32c-0.2,1.9-1.4,2.5-2.7,3.2c-0.5,0.3-1.1,0.6-1.6,0.8c-2.3,0.8-5.3,0.2-7.7,0.5c0-0.7-0.6-1.4,0-2
		c0.3,0.3,0.1,0.9,0.3,1.3c0.6-0.5,1.2-1,1.7-1.6c0.5-0.5,1-1.4,1.6-1.7c1-0.5,4.1-0.4,5.7-0.5C65.1,32,65.7,31.8,66.8,32z
		 M63.8,33.5c0.1,0,0.2,0,0.1,0.1c0.3,0,0.4-0.2,0.6-0.4C64.4,32.9,63.8,33.1,63.8,33.5z M61.5,33.1c-0.1,0.2,0,0.4,0,0.6
		c0.2,0.1,0.9,0.3,0.9-0.1C62.4,33.1,61.8,32.9,61.5,33.1z"/>
	<path class="st1" d="M38,98.6c0.8-0.3,1.4-0.8,2-1.3c1.9,0.2,3.8,0.3,5.6,0.2c0.5,0,1.1-0.2,1.4-0.1c0.7,0.2,0.7,1.2,1.3,1.6
		c-0.2,0.4-0.6,0.8-1.1,1c-3.3,1.3-8.6,0.4-12.5,0.5c0-0.9,1-1.4,1.5-1.8c0.6-0.5,1.2-1.2,1.9-1.5c0.3,0.1,0.7,0,0.9,0.2
		C39.1,97.6,38.2,98.1,38,98.6z"/>
</g>
</svg>
